<svg xmlns="http://www.w3.org/2000/svg" viewBox="0 0 640 640" fill="none">
  <defs>
    <linearGradient id="bg" x1="0" y1="0" x2="640" y2="640" gradientUnits="userSpaceOnUse"><stop stop-color="#e4dacb"/><stop offset="1" stop-color="#9a86b3"/></linearGradient>
    <linearGradient id="body" x1="110" y1="170" x2="500" y2="570" gradientUnits="userSpaceOnUse"><stop stop-color="#9a86b3"/><stop offset="1" stop-color="#3b2d50"/></linearGradient>
  </defs>
  <path fill="url(#bg)" d="M0 0h640v640H0z"/>
  <circle cx="320" cy="300" r="223" stroke="#3b2d50" stroke-opacity=".14"/>
  <circle cx="320" cy="300" r="184" stroke="#3b2d50" stroke-opacity=".14"/>
  <path d="M125 458 245 122h150l120 336-195 123z" fill="url(#body)"/>
  <path d="m245 122 75 459 75-459M125 458h390M176 317h288" stroke="#e4dacb" stroke-opacity=".35"/>
  <path d="m320 193 88 110-88 111-88-111z" fill="#e4dacb"/>
  <path d="m320 221 65 82-65 81-65-81z" fill="#3b2d50"/>
  <circle cx="320" cy="303" r="28" fill="#d28a4c"/>
  <path d="M42 70V42h28m500 0h28v28M42 570v28h28m500 0h28v-28" stroke="#3b2d50" stroke-opacity=".55" stroke-width="2"/>
</svg>
